<mxfile host="app.diagrams.net" modified="2020-06-13T20:27:02.625Z" agent="5.0 (iPhone; CPU iPhone OS 13_4_1 like Mac OS X) AppleWebKit/605.1.15 (KHTML, like Gecko) Version/13.1 Mobile/15E148 Safari/604.1" etag="6DbpSkh_eBamGZUPdhWD" version="13.2.4" type="github">
  <diagram id="TrRU1zKHxKNBvuues6it" name="Page-1">
    <mxGraphModel dx="1653" dy="2490" grid="1" gridSize="40" guides="1" tooltips="1" connect="1" arrows="1" fold="1" page="0" pageScale="1" pageWidth="850" pageHeight="1100" math="0" shadow="0">
      <root>
        <mxCell id="0" />
        <mxCell id="1" parent="0" />
        <mxCell id="QlwDTHchW5DTva7efx4j-72" value="" style="group;fontSize=14;" parent="1" vertex="1" connectable="0">
          <mxGeometry y="-800" width="80" height="160" as="geometry" />
        </mxCell>
        <mxCell id="QlwDTHchW5DTva7efx4j-10" value="Builder" style="rounded=0;whiteSpace=wrap;html=1;imageWidth=24;fontSize=14;" parent="QlwDTHchW5DTva7efx4j-72" vertex="1">
          <mxGeometry width="80" height="160" as="geometry" />
        </mxCell>
        <mxCell id="QlwDTHchW5DTva7efx4j-71" value="" style="rounded=0;whiteSpace=wrap;html=1;comic=0;strokeColor=none;strokeWidth=6;fillColor=#000000;fontSize=14;" parent="QlwDTHchW5DTva7efx4j-72" vertex="1">
          <mxGeometry width="80" height="40" as="geometry" />
        </mxCell>
        <mxCell id="QlwDTHchW5DTva7efx4j-77" value="" style="group;fontSize=14;" parent="1" vertex="1" connectable="0">
          <mxGeometry y="-320" width="160" height="160" as="geometry" />
        </mxCell>
        <mxCell id="QlwDTHchW5DTva7efx4j-32" value="Citizen" style="whiteSpace=wrap;html=1;aspect=fixed;fontSize=14;" parent="QlwDTHchW5DTva7efx4j-77" vertex="1">
          <mxGeometry width="160" height="160" as="geometry" />
        </mxCell>
        <mxCell id="QlwDTHchW5DTva7efx4j-76" value="" style="rounded=0;whiteSpace=wrap;html=1;comic=0;strokeColor=none;strokeWidth=6;fillColor=#000000;fontSize=14;" parent="QlwDTHchW5DTva7efx4j-77" vertex="1">
          <mxGeometry width="40" height="40" as="geometry" />
        </mxCell>
        <mxCell id="QlwDTHchW5DTva7efx4j-78" value="" style="group;fontSize=14;" parent="1" vertex="1" connectable="0">
          <mxGeometry x="80" y="-800" width="80" height="160" as="geometry" />
        </mxCell>
        <mxCell id="QlwDTHchW5DTva7efx4j-79" value="Miner" style="rounded=0;whiteSpace=wrap;html=1;imageWidth=24;fontSize=14;" parent="QlwDTHchW5DTva7efx4j-78" vertex="1">
          <mxGeometry width="80" height="160" as="geometry" />
        </mxCell>
        <mxCell id="QlwDTHchW5DTva7efx4j-80" value="" style="rounded=0;whiteSpace=wrap;html=1;comic=0;strokeColor=none;strokeWidth=6;fillColor=#000000;fontSize=14;" parent="QlwDTHchW5DTva7efx4j-78" vertex="1">
          <mxGeometry width="80" height="40" as="geometry" />
        </mxCell>
        <mxCell id="QlwDTHchW5DTva7efx4j-81" value="" style="group;fontSize=14;" parent="1" vertex="1" connectable="0">
          <mxGeometry x="160" y="-800" width="80" height="160" as="geometry" />
        </mxCell>
        <mxCell id="QlwDTHchW5DTva7efx4j-82" value="Lumberjack" style="rounded=0;whiteSpace=wrap;html=1;imageWidth=24;fontSize=14;" parent="QlwDTHchW5DTva7efx4j-81" vertex="1">
          <mxGeometry width="80" height="160" as="geometry" />
        </mxCell>
        <mxCell id="QlwDTHchW5DTva7efx4j-83" value="" style="rounded=0;whiteSpace=wrap;html=1;comic=0;strokeColor=none;strokeWidth=6;fillColor=#000000;fontSize=14;" parent="QlwDTHchW5DTva7efx4j-81" vertex="1">
          <mxGeometry width="80" height="40" as="geometry" />
        </mxCell>
        <mxCell id="QlwDTHchW5DTva7efx4j-84" value="" style="group;fontSize=14;" parent="1" vertex="1" connectable="0">
          <mxGeometry x="240" y="-800" width="80" height="160" as="geometry" />
        </mxCell>
        <mxCell id="QlwDTHchW5DTva7efx4j-85" value="Warehouse" style="rounded=0;whiteSpace=wrap;html=1;imageWidth=24;fontSize=14;" parent="QlwDTHchW5DTva7efx4j-84" vertex="1">
          <mxGeometry width="80" height="160" as="geometry" />
        </mxCell>
        <mxCell id="QlwDTHchW5DTva7efx4j-86" value="" style="rounded=0;whiteSpace=wrap;html=1;comic=0;strokeColor=none;strokeWidth=6;fillColor=#000000;fontSize=14;" parent="QlwDTHchW5DTva7efx4j-84" vertex="1">
          <mxGeometry width="80" height="40" as="geometry" />
        </mxCell>
        <mxCell id="QlwDTHchW5DTva7efx4j-87" value="" style="group;fontSize=14;" parent="1" vertex="1" connectable="0">
          <mxGeometry x="320" y="-800" width="80" height="160" as="geometry" />
        </mxCell>
        <mxCell id="QlwDTHchW5DTva7efx4j-88" value="Deliveryman" style="rounded=0;whiteSpace=wrap;html=1;imageWidth=24;fontSize=14;" parent="QlwDTHchW5DTva7efx4j-87" vertex="1">
          <mxGeometry width="80" height="160" as="geometry" />
        </mxCell>
        <mxCell id="QlwDTHchW5DTva7efx4j-89" value="" style="rounded=0;whiteSpace=wrap;html=1;comic=0;strokeColor=none;strokeWidth=6;fillColor=#000000;fontSize=14;" parent="QlwDTHchW5DTva7efx4j-87" vertex="1">
          <mxGeometry width="80" height="40" as="geometry" />
        </mxCell>
        <mxCell id="QlwDTHchW5DTva7efx4j-90" value="" style="group;fontSize=14;" parent="1" vertex="1" connectable="0">
          <mxGeometry x="400" y="-800" width="80" height="160" as="geometry" />
        </mxCell>
        <mxCell id="QlwDTHchW5DTva7efx4j-91" value="Restaurant" style="rounded=0;whiteSpace=wrap;html=1;imageWidth=24;fontSize=14;" parent="QlwDTHchW5DTva7efx4j-90" vertex="1">
          <mxGeometry width="80" height="160" as="geometry" />
        </mxCell>
        <mxCell id="QlwDTHchW5DTva7efx4j-92" value="" style="rounded=0;whiteSpace=wrap;html=1;comic=0;strokeColor=none;strokeWidth=6;fillColor=#000000;fontSize=14;" parent="QlwDTHchW5DTva7efx4j-90" vertex="1">
          <mxGeometry width="80" height="40" as="geometry" />
        </mxCell>
        <mxCell id="QlwDTHchW5DTva7efx4j-93" value="" style="group;fontSize=14;" parent="1" vertex="1" connectable="0">
          <mxGeometry y="-640" width="80" height="160" as="geometry" />
        </mxCell>
        <mxCell id="QlwDTHchW5DTva7efx4j-94" value="Bakery" style="rounded=0;whiteSpace=wrap;html=1;imageWidth=24;fontSize=14;" parent="QlwDTHchW5DTva7efx4j-93" vertex="1">
          <mxGeometry width="80" height="160" as="geometry" />
        </mxCell>
        <mxCell id="QlwDTHchW5DTva7efx4j-95" value="" style="rounded=0;whiteSpace=wrap;html=1;comic=0;strokeColor=none;strokeWidth=6;fillColor=#000000;fontSize=14;" parent="QlwDTHchW5DTva7efx4j-93" vertex="1">
          <mxGeometry width="80" height="40" as="geometry" />
        </mxCell>
        <mxCell id="QlwDTHchW5DTva7efx4j-99" value="" style="group;fontSize=14;" parent="1" vertex="1" connectable="0">
          <mxGeometry x="160" y="-640" width="80" height="160" as="geometry" />
        </mxCell>
        <mxCell id="QlwDTHchW5DTva7efx4j-100" value="Fisherman" style="rounded=0;whiteSpace=wrap;html=1;imageWidth=24;fontSize=14;fillColor=#cdeb8b;strokeColor=#36393d;" parent="QlwDTHchW5DTva7efx4j-99" vertex="1">
          <mxGeometry width="80" height="160" as="geometry" />
        </mxCell>
        <mxCell id="QlwDTHchW5DTva7efx4j-101" value="" style="rounded=0;whiteSpace=wrap;html=1;comic=0;strokeColor=none;strokeWidth=6;fillColor=#000000;fontSize=14;" parent="QlwDTHchW5DTva7efx4j-99" vertex="1">
          <mxGeometry width="80" height="40" as="geometry" />
        </mxCell>
        <mxCell id="QlwDTHchW5DTva7efx4j-102" value="" style="group;fontSize=14;fillColor=#cdeb8b;strokeColor=#36393d;" parent="1" vertex="1" connectable="0">
          <mxGeometry x="240" y="-640" width="80" height="160" as="geometry" />
        </mxCell>
        <mxCell id="QlwDTHchW5DTva7efx4j-103" value="Chicken" style="rounded=0;whiteSpace=wrap;html=1;imageWidth=24;fontSize=14;fillColor=#cdeb8b;strokeColor=#36393d;" parent="QlwDTHchW5DTva7efx4j-102" vertex="1">
          <mxGeometry width="80" height="160" as="geometry" />
        </mxCell>
        <mxCell id="QlwDTHchW5DTva7efx4j-104" value="" style="rounded=0;whiteSpace=wrap;html=1;comic=0;strokeColor=none;strokeWidth=6;fillColor=#000000;fontSize=14;" parent="QlwDTHchW5DTva7efx4j-102" vertex="1">
          <mxGeometry width="80" height="40" as="geometry" />
        </mxCell>
        <mxCell id="QlwDTHchW5DTva7efx4j-105" value="" style="group;fontSize=14;" parent="1" vertex="1" connectable="0">
          <mxGeometry x="320" y="-640" width="80" height="160" as="geometry" />
        </mxCell>
        <mxCell id="QlwDTHchW5DTva7efx4j-106" value="Pig" style="rounded=0;whiteSpace=wrap;html=1;imageWidth=24;fontSize=14;fillColor=#cdeb8b;strokeColor=#36393d;" parent="QlwDTHchW5DTva7efx4j-105" vertex="1">
          <mxGeometry width="80" height="160" as="geometry" />
        </mxCell>
        <mxCell id="QlwDTHchW5DTva7efx4j-107" value="" style="rounded=0;whiteSpace=wrap;html=1;comic=0;strokeColor=none;strokeWidth=6;fillColor=#000000;fontSize=14;" parent="QlwDTHchW5DTva7efx4j-105" vertex="1">
          <mxGeometry width="80" height="40" as="geometry" />
        </mxCell>
        <mxCell id="QlwDTHchW5DTva7efx4j-108" value="" style="group;fontSize=14;" parent="1" vertex="1" connectable="0">
          <mxGeometry x="400" y="-640" width="80" height="160" as="geometry" />
        </mxCell>
        <mxCell id="QlwDTHchW5DTva7efx4j-109" value="Sheep" style="rounded=0;whiteSpace=wrap;html=1;imageWidth=24;fontSize=14;fillColor=#cdeb8b;strokeColor=#36393d;" parent="QlwDTHchW5DTva7efx4j-108" vertex="1">
          <mxGeometry width="80" height="160" as="geometry" />
        </mxCell>
        <mxCell id="QlwDTHchW5DTva7efx4j-110" value="" style="rounded=0;whiteSpace=wrap;html=1;comic=0;strokeColor=none;strokeWidth=6;fillColor=#000000;fontSize=14;" parent="QlwDTHchW5DTva7efx4j-108" vertex="1">
          <mxGeometry width="80" height="40" as="geometry" />
        </mxCell>
        <mxCell id="QlwDTHchW5DTva7efx4j-114" value="" style="group;fontSize=14;fillColor=#cdeb8b;strokeColor=#36393d;" parent="1" vertex="1" connectable="0">
          <mxGeometry x="160" y="-320" width="160" height="160" as="geometry" />
        </mxCell>
        <mxCell id="QlwDTHchW5DTva7efx4j-112" value="Farm" style="whiteSpace=wrap;html=1;aspect=fixed;fontSize=14;fillColor=#cdeb8b;strokeColor=#36393d;" parent="QlwDTHchW5DTva7efx4j-114" vertex="1">
          <mxGeometry width="160" height="160" as="geometry" />
        </mxCell>
        <mxCell id="QlwDTHchW5DTva7efx4j-113" value="" style="rounded=0;whiteSpace=wrap;html=1;comic=0;strokeColor=none;strokeWidth=6;fillColor=#000000;fontSize=14;" parent="QlwDTHchW5DTva7efx4j-114" vertex="1">
          <mxGeometry width="160" height="40" as="geometry" />
        </mxCell>
        <mxCell id="QlwDTHchW5DTva7efx4j-115" value="" style="group;fontSize=14;" parent="1" vertex="1" connectable="0">
          <mxGeometry y="-480" width="80" height="160" as="geometry" />
        </mxCell>
        <mxCell id="QlwDTHchW5DTva7efx4j-116" value="Cow" style="rounded=0;whiteSpace=wrap;html=1;imageWidth=24;fontSize=14;fillColor=#cdeb8b;strokeColor=#36393d;" parent="QlwDTHchW5DTva7efx4j-115" vertex="1">
          <mxGeometry width="80" height="160" as="geometry" />
        </mxCell>
        <mxCell id="QlwDTHchW5DTva7efx4j-117" value="" style="rounded=0;whiteSpace=wrap;html=1;comic=0;strokeColor=none;strokeWidth=6;fillColor=#000000;fontSize=14;" parent="QlwDTHchW5DTva7efx4j-115" vertex="1">
          <mxGeometry width="80" height="40" as="geometry" />
        </mxCell>
        <mxCell id="QlwDTHchW5DTva7efx4j-118" value="" style="group;fontSize=14;" parent="1" vertex="1" connectable="0">
          <mxGeometry x="80" y="-480" width="80" height="160" as="geometry" />
        </mxCell>
        <mxCell id="QlwDTHchW5DTva7efx4j-119" value="Composter" style="rounded=0;whiteSpace=wrap;html=1;imageWidth=24;fontSize=14;fillColor=#d5e8d4;strokeColor=#82b366;" parent="QlwDTHchW5DTva7efx4j-118" vertex="1">
          <mxGeometry width="80" height="160" as="geometry" />
        </mxCell>
        <mxCell id="QlwDTHchW5DTva7efx4j-120" value="" style="rounded=0;whiteSpace=wrap;html=1;comic=0;strokeColor=none;strokeWidth=6;fillColor=#000000;fontSize=14;" parent="QlwDTHchW5DTva7efx4j-118" vertex="1">
          <mxGeometry width="80" height="40" as="geometry" />
        </mxCell>
        <mxCell id="QlwDTHchW5DTva7efx4j-121" value="" style="group;fontSize=14;" parent="1" vertex="1" connectable="0">
          <mxGeometry x="160" y="-480" width="80" height="160" as="geometry" />
        </mxCell>
        <mxCell id="QlwDTHchW5DTva7efx4j-122" value="Guard" style="rounded=0;whiteSpace=wrap;html=1;imageWidth=24;fontSize=14;" parent="QlwDTHchW5DTva7efx4j-121" vertex="1">
          <mxGeometry width="80" height="160" as="geometry" />
        </mxCell>
        <mxCell id="QlwDTHchW5DTva7efx4j-123" value="" style="rounded=0;whiteSpace=wrap;html=1;comic=0;strokeColor=none;strokeWidth=6;fillColor=#000000;fontSize=14;" parent="QlwDTHchW5DTva7efx4j-121" vertex="1">
          <mxGeometry width="80" height="40" as="geometry" />
        </mxCell>
        <mxCell id="QlwDTHchW5DTva7efx4j-124" value="" style="group;fontSize=14;" parent="1" vertex="1" connectable="0">
          <mxGeometry x="240" y="-480" width="80" height="160" as="geometry" />
        </mxCell>
        <mxCell id="QlwDTHchW5DTva7efx4j-125" value="Stonemason" style="rounded=0;whiteSpace=wrap;html=1;imageWidth=24;fontSize=14;" parent="QlwDTHchW5DTva7efx4j-124" vertex="1">
          <mxGeometry width="80" height="160" as="geometry" />
        </mxCell>
        <mxCell id="QlwDTHchW5DTva7efx4j-126" value="" style="rounded=0;whiteSpace=wrap;html=1;comic=0;strokeColor=none;strokeWidth=6;fillColor=#000000;fontSize=14;" parent="QlwDTHchW5DTva7efx4j-124" vertex="1">
          <mxGeometry width="80" height="40" as="geometry" />
        </mxCell>
        <mxCell id="QlwDTHchW5DTva7efx4j-127" value="" style="group;fontSize=14;" parent="1" vertex="1" connectable="0">
          <mxGeometry x="320" y="-480" width="80" height="160" as="geometry" />
        </mxCell>
        <mxCell id="QlwDTHchW5DTva7efx4j-128" value="Sifter" style="rounded=0;whiteSpace=wrap;html=1;imageWidth=24;fontSize=14;fillColor=#fff2cc;strokeColor=#d6b656;" parent="QlwDTHchW5DTva7efx4j-127" vertex="1">
          <mxGeometry width="80" height="160" as="geometry" />
        </mxCell>
        <mxCell id="QlwDTHchW5DTva7efx4j-129" value="" style="rounded=0;whiteSpace=wrap;html=1;comic=0;strokeColor=none;strokeWidth=6;fillColor=#000000;fontSize=14;" parent="QlwDTHchW5DTva7efx4j-127" vertex="1">
          <mxGeometry width="80" height="40" as="geometry" />
        </mxCell>
        <mxCell id="QlwDTHchW5DTva7efx4j-130" value="" style="group;fontSize=14;fillColor=#fff2cc;strokeColor=#d6b656;" parent="1" vertex="1" connectable="0">
          <mxGeometry x="400" y="-480" width="80" height="160" as="geometry" />
        </mxCell>
        <mxCell id="QlwDTHchW5DTva7efx4j-131" value="Crusher" style="rounded=0;whiteSpace=wrap;html=1;imageWidth=24;fontSize=14;fillColor=#fff2cc;strokeColor=#d6b656;" parent="QlwDTHchW5DTva7efx4j-130" vertex="1">
          <mxGeometry width="80" height="160" as="geometry" />
        </mxCell>
        <mxCell id="QlwDTHchW5DTva7efx4j-132" value="" style="rounded=0;whiteSpace=wrap;html=1;comic=0;strokeColor=none;strokeWidth=6;fillColor=#000000;fontSize=14;" parent="QlwDTHchW5DTva7efx4j-130" vertex="1">
          <mxGeometry width="80" height="40" as="geometry" />
        </mxCell>
        <mxCell id="QlwDTHchW5DTva7efx4j-143" value="" style="group;fontSize=14;" parent="1" vertex="1" connectable="0">
          <mxGeometry x="1120" y="-320" width="320" height="320" as="geometry" />
        </mxCell>
        <mxCell id="QlwDTHchW5DTva7efx4j-1" value="Town Hall" style="whiteSpace=wrap;html=1;aspect=fixed;fontSize=14;" parent="QlwDTHchW5DTva7efx4j-143" vertex="1">
          <mxGeometry width="320" height="320" as="geometry" />
        </mxCell>
        <mxCell id="QlwDTHchW5DTva7efx4j-139" value="" style="rounded=0;whiteSpace=wrap;html=1;comic=0;strokeColor=none;strokeWidth=6;fillColor=#000000;fontSize=14;" parent="QlwDTHchW5DTva7efx4j-143" vertex="1">
          <mxGeometry width="320" height="40" as="geometry" />
        </mxCell>
        <mxCell id="QlwDTHchW5DTva7efx4j-140" value="" style="rounded=0;whiteSpace=wrap;html=1;comic=0;strokeColor=none;strokeWidth=6;fillColor=#000000;fontSize=14;" parent="QlwDTHchW5DTva7efx4j-143" vertex="1">
          <mxGeometry y="280" width="320" height="40" as="geometry" />
        </mxCell>
        <mxCell id="QlwDTHchW5DTva7efx4j-141" value="" style="rounded=0;whiteSpace=wrap;html=1;comic=0;strokeColor=none;strokeWidth=6;fillColor=#000000;direction=south;fontSize=14;" parent="QlwDTHchW5DTva7efx4j-143" vertex="1">
          <mxGeometry width="40" height="320" as="geometry" />
        </mxCell>
        <mxCell id="QlwDTHchW5DTva7efx4j-142" value="" style="rounded=0;whiteSpace=wrap;html=1;comic=0;strokeColor=none;strokeWidth=6;fillColor=#000000;direction=south;fontSize=14;" parent="QlwDTHchW5DTva7efx4j-143" vertex="1">
          <mxGeometry x="280" width="40" height="320" as="geometry" />
        </mxCell>
        <mxCell id="QlwDTHchW5DTva7efx4j-154" value="" style="group;fontSize=14;" parent="1" vertex="1" connectable="0">
          <mxGeometry x="1480" y="-320" width="480" height="160" as="geometry" />
        </mxCell>
        <mxCell id="QlwDTHchW5DTva7efx4j-151" value="Barracks" style="rounded=0;whiteSpace=wrap;html=1;comic=0;strokeColor=#b85450;strokeWidth=1;fillColor=#f8cecc;fontSize=14;" parent="QlwDTHchW5DTva7efx4j-154" vertex="1">
          <mxGeometry width="480" height="160" as="geometry" />
        </mxCell>
        <mxCell id="QlwDTHchW5DTva7efx4j-152" value="" style="rounded=0;whiteSpace=wrap;html=1;comic=0;strokeColor=none;strokeWidth=1;fillColor=#000000;fontSize=14;" parent="QlwDTHchW5DTva7efx4j-154" vertex="1">
          <mxGeometry width="40" height="160" as="geometry" />
        </mxCell>
        <mxCell id="QlwDTHchW5DTva7efx4j-153" value="" style="rounded=0;whiteSpace=wrap;html=1;comic=0;strokeColor=none;strokeWidth=1;fillColor=#000000;fontSize=14;" parent="QlwDTHchW5DTva7efx4j-154" vertex="1">
          <mxGeometry x="440" width="40" height="160" as="geometry" />
        </mxCell>
        <mxCell id="QlwDTHchW5DTva7efx4j-155" value="" style="group;fontSize=14;" parent="1" vertex="1" connectable="0">
          <mxGeometry x="320" y="-320" width="160" height="160" as="geometry" />
        </mxCell>
        <mxCell id="QlwDTHchW5DTva7efx4j-156" value="Combat Academy" style="whiteSpace=wrap;html=1;aspect=fixed;fontSize=14;fillColor=#f8cecc;strokeColor=#b85450;" parent="QlwDTHchW5DTva7efx4j-155" vertex="1">
          <mxGeometry width="160" height="160" as="geometry" />
        </mxCell>
        <mxCell id="QlwDTHchW5DTva7efx4j-157" value="" style="rounded=0;whiteSpace=wrap;html=1;comic=0;strokeColor=none;strokeWidth=6;fillColor=#000000;fontSize=14;" parent="QlwDTHchW5DTva7efx4j-155" vertex="1">
          <mxGeometry width="160" height="40" as="geometry" />
        </mxCell>
        <mxCell id="QlwDTHchW5DTva7efx4j-158" value="" style="group;fontSize=14;fillColor=#f8cecc;strokeColor=#b85450;" parent="1" vertex="1" connectable="0">
          <mxGeometry y="-160" width="160" height="160" as="geometry" />
        </mxCell>
        <mxCell id="QlwDTHchW5DTva7efx4j-159" value="Archery" style="whiteSpace=wrap;html=1;aspect=fixed;fontSize=14;fillColor=#f8cecc;strokeColor=#b85450;" parent="QlwDTHchW5DTva7efx4j-158" vertex="1">
          <mxGeometry width="160" height="160" as="geometry" />
        </mxCell>
        <mxCell id="QlwDTHchW5DTva7efx4j-160" value="" style="rounded=0;whiteSpace=wrap;html=1;comic=0;strokeColor=none;strokeWidth=6;fillColor=#000000;fontSize=14;" parent="QlwDTHchW5DTva7efx4j-158" vertex="1">
          <mxGeometry width="160" height="40" as="geometry" />
        </mxCell>
        <mxCell id="QlwDTHchW5DTva7efx4j-166" value="" style="group;fontSize=14;" parent="1" vertex="1" connectable="0">
          <mxGeometry x="1480" y="-720" width="320" height="360" as="geometry" />
        </mxCell>
        <mxCell id="QlwDTHchW5DTva7efx4j-162" value="Hospital" style="rounded=0;whiteSpace=wrap;html=1;comic=0;strokeColor=#000000;strokeWidth=1;fillColor=none;fontSize=14;" parent="QlwDTHchW5DTva7efx4j-166" vertex="1">
          <mxGeometry width="320" height="320" as="geometry" />
        </mxCell>
        <mxCell id="QlwDTHchW5DTva7efx4j-163" value="" style="rounded=0;whiteSpace=wrap;html=1;comic=0;strokeColor=none;strokeWidth=1;fillColor=#000000;direction=south;fontSize=14;" parent="QlwDTHchW5DTva7efx4j-166" vertex="1">
          <mxGeometry width="320" height="40" as="geometry" />
        </mxCell>
        <mxCell id="QlwDTHchW5DTva7efx4j-164" value="" style="rounded=0;whiteSpace=wrap;html=1;comic=0;strokeColor=none;strokeWidth=1;fillColor=#000000;direction=west;fontSize=14;" parent="QlwDTHchW5DTva7efx4j-166" vertex="1">
          <mxGeometry x="280" y="40" width="40" height="320" as="geometry" />
        </mxCell>
        <mxCell id="QlwDTHchW5DTva7efx4j-165" value="" style="rounded=0;whiteSpace=wrap;html=1;comic=0;strokeColor=none;strokeWidth=1;fillColor=#000000;direction=west;fontSize=14;" parent="QlwDTHchW5DTva7efx4j-166" vertex="1">
          <mxGeometry y="40" width="40" height="320" as="geometry" />
        </mxCell>
        <mxCell id="QlwDTHchW5DTva7efx4j-167" value="" style="group;fontSize=14;" parent="1" vertex="1" connectable="0">
          <mxGeometry x="1120" y="-720" width="320" height="360" as="geometry" />
        </mxCell>
        <mxCell id="QlwDTHchW5DTva7efx4j-168" value="University" style="rounded=0;whiteSpace=wrap;html=1;comic=0;strokeColor=#000000;strokeWidth=1;fillColor=none;fontSize=14;" parent="QlwDTHchW5DTva7efx4j-167" vertex="1">
          <mxGeometry width="320" height="320" as="geometry" />
        </mxCell>
        <mxCell id="QlwDTHchW5DTva7efx4j-169" value="" style="rounded=0;whiteSpace=wrap;html=1;comic=0;strokeColor=none;strokeWidth=1;fillColor=#000000;direction=south;fontSize=14;" parent="QlwDTHchW5DTva7efx4j-167" vertex="1">
          <mxGeometry width="320" height="40" as="geometry" />
        </mxCell>
        <mxCell id="QlwDTHchW5DTva7efx4j-170" value="" style="rounded=0;whiteSpace=wrap;html=1;comic=0;strokeColor=none;strokeWidth=1;fillColor=#000000;direction=west;fontSize=14;" parent="QlwDTHchW5DTva7efx4j-167" vertex="1">
          <mxGeometry x="280" y="40" width="40" height="320" as="geometry" />
        </mxCell>
        <mxCell id="QlwDTHchW5DTva7efx4j-171" value="" style="rounded=0;whiteSpace=wrap;html=1;comic=0;strokeColor=none;strokeWidth=1;fillColor=#000000;direction=west;fontSize=14;" parent="QlwDTHchW5DTva7efx4j-167" vertex="1">
          <mxGeometry y="40" width="40" height="320" as="geometry" />
        </mxCell>
        <mxCell id="QlwDTHchW5DTva7efx4j-172" value="" style="group;fontSize=14;" parent="1" vertex="1" connectable="0">
          <mxGeometry x="160" y="-160" width="160" height="160" as="geometry" />
        </mxCell>
        <mxCell id="QlwDTHchW5DTva7efx4j-173" value="Library" style="whiteSpace=wrap;html=1;aspect=fixed;fontSize=14;" parent="QlwDTHchW5DTva7efx4j-172" vertex="1">
          <mxGeometry width="160" height="160" as="geometry" />
        </mxCell>
        <mxCell id="QlwDTHchW5DTva7efx4j-174" value="" style="rounded=0;whiteSpace=wrap;html=1;comic=0;strokeColor=none;strokeWidth=6;fillColor=#000000;fontSize=14;" parent="QlwDTHchW5DTva7efx4j-172" vertex="1">
          <mxGeometry width="160" height="40" as="geometry" />
        </mxCell>
        <mxCell id="QlwDTHchW5DTva7efx4j-175" value="" style="group;fontSize=14;" parent="1" vertex="1" connectable="0">
          <mxGeometry x="320" y="-160" width="160" height="160" as="geometry" />
        </mxCell>
        <mxCell id="QlwDTHchW5DTva7efx4j-176" value="Sawmill" style="whiteSpace=wrap;html=1;aspect=fixed;fontSize=14;" parent="QlwDTHchW5DTva7efx4j-175" vertex="1">
          <mxGeometry width="160" height="160" as="geometry" />
        </mxCell>
        <mxCell id="QlwDTHchW5DTva7efx4j-177" value="" style="rounded=0;whiteSpace=wrap;html=1;comic=0;strokeColor=none;strokeWidth=6;fillColor=#000000;fontSize=14;" parent="QlwDTHchW5DTva7efx4j-175" vertex="1">
          <mxGeometry width="160" height="40" as="geometry" />
        </mxCell>
        <mxCell id="QlwDTHchW5DTva7efx4j-178" value="" style="group;fontSize=14;" parent="1" vertex="1" connectable="0">
          <mxGeometry width="160" height="160" as="geometry" />
        </mxCell>
        <mxCell id="QlwDTHchW5DTva7efx4j-179" value="Stonesmeltery" style="whiteSpace=wrap;html=1;aspect=fixed;fontSize=14;" parent="QlwDTHchW5DTva7efx4j-178" vertex="1">
          <mxGeometry width="160" height="160" as="geometry" />
        </mxCell>
        <mxCell id="QlwDTHchW5DTva7efx4j-180" value="" style="rounded=0;whiteSpace=wrap;html=1;comic=0;strokeColor=none;strokeWidth=6;fillColor=#000000;fontSize=14;" parent="QlwDTHchW5DTva7efx4j-178" vertex="1">
          <mxGeometry width="160" height="40" as="geometry" />
        </mxCell>
        <mxCell id="QlwDTHchW5DTva7efx4j-184" value="" style="group;fontSize=14;" parent="1" vertex="1" connectable="0">
          <mxGeometry x="480" y="-800" width="80" height="160" as="geometry" />
        </mxCell>
        <mxCell id="QlwDTHchW5DTva7efx4j-185" value="Smeltery" style="rounded=0;whiteSpace=wrap;html=1;imageWidth=24;fontSize=14;fillColor=#fff2cc;strokeColor=#d6b656;" parent="QlwDTHchW5DTva7efx4j-184" vertex="1">
          <mxGeometry width="80" height="160" as="geometry" />
        </mxCell>
        <mxCell id="QlwDTHchW5DTva7efx4j-186" value="" style="rounded=0;whiteSpace=wrap;html=1;comic=0;strokeColor=none;strokeWidth=6;fillColor=#000000;fontSize=14;" parent="QlwDTHchW5DTva7efx4j-184" vertex="1">
          <mxGeometry width="80" height="40" as="geometry" />
        </mxCell>
        <mxCell id="QlwDTHchW5DTva7efx4j-187" value="" style="group;fontSize=14;" parent="1" vertex="1" connectable="0">
          <mxGeometry x="480" y="-640" width="80" height="160" as="geometry" />
        </mxCell>
        <mxCell id="QlwDTHchW5DTva7efx4j-188" value="Blacksmith" style="rounded=0;whiteSpace=wrap;html=1;imageWidth=24;fontSize=14;fillColor=#ffe6cc;strokeColor=#d79b00;" parent="QlwDTHchW5DTva7efx4j-187" vertex="1">
          <mxGeometry width="80" height="160" as="geometry" />
        </mxCell>
        <mxCell id="QlwDTHchW5DTva7efx4j-189" value="" style="rounded=0;whiteSpace=wrap;html=1;comic=0;strokeColor=none;strokeWidth=6;fillColor=#000000;fontSize=14;" parent="QlwDTHchW5DTva7efx4j-187" vertex="1">
          <mxGeometry width="80" height="40" as="geometry" />
        </mxCell>
        <mxCell id="QlwDTHchW5DTva7efx4j-190" value="" style="group;fontSize=14;fillColor=#ffcccc;strokeColor=#36393d;" parent="1" vertex="1" connectable="0">
          <mxGeometry x="480" y="-480" width="80" height="160" as="geometry" />
        </mxCell>
        <mxCell id="QlwDTHchW5DTva7efx4j-191" value="Florist" style="rounded=0;whiteSpace=wrap;html=1;imageWidth=24;fontSize=14;fillColor=#cdeb8b;strokeColor=#36393d;" parent="QlwDTHchW5DTva7efx4j-190" vertex="1">
          <mxGeometry width="80" height="160" as="geometry" />
        </mxCell>
        <mxCell id="QlwDTHchW5DTva7efx4j-192" value="" style="rounded=0;whiteSpace=wrap;html=1;comic=0;strokeColor=none;strokeWidth=6;fillColor=#000000;fontSize=14;" parent="QlwDTHchW5DTva7efx4j-190" vertex="1">
          <mxGeometry width="80" height="40" as="geometry" />
        </mxCell>
        <mxCell id="QlwDTHchW5DTva7efx4j-193" value="" style="group;fontSize=14;" parent="1" vertex="1" connectable="0">
          <mxGeometry x="160" width="160" height="160" as="geometry" />
        </mxCell>
        <mxCell id="QlwDTHchW5DTva7efx4j-194" value="Enchanter" style="whiteSpace=wrap;html=1;aspect=fixed;fontSize=14;" parent="QlwDTHchW5DTva7efx4j-193" vertex="1">
          <mxGeometry width="160" height="160" as="geometry" />
        </mxCell>
        <mxCell id="QlwDTHchW5DTva7efx4j-195" value="" style="rounded=0;whiteSpace=wrap;html=1;comic=0;strokeColor=none;strokeWidth=6;fillColor=#000000;fontSize=14;" parent="QlwDTHchW5DTva7efx4j-193" vertex="1">
          <mxGeometry width="160" height="40" as="geometry" />
        </mxCell>
        <mxCell id="QlwDTHchW5DTva7efx4j-196" value="" style="group;fontSize=14;" parent="1" vertex="1" connectable="0">
          <mxGeometry x="560" y="-800" width="80" height="160" as="geometry" />
        </mxCell>
        <mxCell id="QlwDTHchW5DTva7efx4j-197" value="School" style="rounded=0;whiteSpace=wrap;html=1;imageWidth=24;fontSize=14;" parent="QlwDTHchW5DTva7efx4j-196" vertex="1">
          <mxGeometry width="80" height="160" as="geometry" />
        </mxCell>
        <mxCell id="QlwDTHchW5DTva7efx4j-198" value="" style="rounded=0;whiteSpace=wrap;html=1;comic=0;strokeColor=none;strokeWidth=6;fillColor=#000000;fontSize=14;" parent="QlwDTHchW5DTva7efx4j-196" vertex="1">
          <mxGeometry width="80" height="40" as="geometry" />
        </mxCell>
        <mxCell id="QlwDTHchW5DTva7efx4j-199" value="" style="group;fontSize=14;" parent="1" vertex="1" connectable="0">
          <mxGeometry x="560" y="-640" width="80" height="160" as="geometry" />
        </mxCell>
        <mxCell id="QlwDTHchW5DTva7efx4j-200" value="Glassblower" style="rounded=0;whiteSpace=wrap;html=1;imageWidth=24;fontSize=14;fillColor=#fff2cc;strokeColor=#d6b656;" parent="QlwDTHchW5DTva7efx4j-199" vertex="1">
          <mxGeometry width="80" height="160" as="geometry" />
        </mxCell>
        <mxCell id="QlwDTHchW5DTva7efx4j-201" value="" style="rounded=0;whiteSpace=wrap;html=1;comic=0;strokeColor=none;strokeWidth=6;fillColor=#000000;fontSize=14;" parent="QlwDTHchW5DTva7efx4j-199" vertex="1">
          <mxGeometry width="80" height="40" as="geometry" />
        </mxCell>
        <mxCell id="QlwDTHchW5DTva7efx4j-202" value="" style="group;fontSize=14;" parent="1" vertex="1" connectable="0">
          <mxGeometry x="560" y="-480" width="80" height="160" as="geometry" />
        </mxCell>
        <mxCell id="QlwDTHchW5DTva7efx4j-203" value="Dye" style="rounded=0;whiteSpace=wrap;html=1;imageWidth=24;fontSize=14;" parent="QlwDTHchW5DTva7efx4j-202" vertex="1">
          <mxGeometry width="80" height="160" as="geometry" />
        </mxCell>
        <mxCell id="QlwDTHchW5DTva7efx4j-204" value="" style="rounded=0;whiteSpace=wrap;html=1;comic=0;strokeColor=none;strokeWidth=6;fillColor=#000000;fontSize=14;" parent="QlwDTHchW5DTva7efx4j-202" vertex="1">
          <mxGeometry width="80" height="40" as="geometry" />
        </mxCell>
        <mxCell id="QlwDTHchW5DTva7efx4j-205" value="" style="group;fontSize=14;" parent="1" vertex="1" connectable="0">
          <mxGeometry x="80" y="-640" width="80" height="160" as="geometry" />
        </mxCell>
        <mxCell id="QlwDTHchW5DTva7efx4j-206" value="Fletcher" style="rounded=0;whiteSpace=wrap;html=1;imageWidth=24;fontSize=14;fillColor=#ffe6cc;strokeColor=#d79b00;" parent="QlwDTHchW5DTva7efx4j-205" vertex="1">
          <mxGeometry width="80" height="160" as="geometry" />
        </mxCell>
        <mxCell id="QlwDTHchW5DTva7efx4j-207" value="" style="rounded=0;whiteSpace=wrap;html=1;comic=0;strokeColor=none;strokeWidth=6;fillColor=#000000;fontSize=14;" parent="QlwDTHchW5DTva7efx4j-205" vertex="1">
          <mxGeometry width="80" height="40" as="geometry" />
        </mxCell>
        <mxCell id="QlwDTHchW5DTva7efx4j-208" value="" style="group;fontSize=14;fillColor=#cdeb8b;strokeColor=#36393d;" parent="1" vertex="1" connectable="0">
          <mxGeometry x="480" y="-320" width="160" height="160" as="geometry" />
        </mxCell>
        <mxCell id="QlwDTHchW5DTva7efx4j-209" value="Plantation" style="whiteSpace=wrap;html=1;aspect=fixed;fontSize=14;fillColor=#cdeb8b;strokeColor=#36393d;" parent="QlwDTHchW5DTva7efx4j-208" vertex="1">
          <mxGeometry width="160" height="160" as="geometry" />
        </mxCell>
        <mxCell id="QlwDTHchW5DTva7efx4j-210" value="" style="rounded=0;whiteSpace=wrap;html=1;comic=0;strokeColor=none;strokeWidth=6;fillColor=#000000;fontSize=14;" parent="QlwDTHchW5DTva7efx4j-208" vertex="1">
          <mxGeometry width="160" height="40" as="geometry" />
        </mxCell>
        <mxCell id="QlwDTHchW5DTva7efx4j-211" value="" style="group;fontSize=14;" parent="1" vertex="1" connectable="0">
          <mxGeometry x="480" y="-160" width="160" height="160" as="geometry" />
        </mxCell>
        <mxCell id="QlwDTHchW5DTva7efx4j-212" value="Citizen (alt)" style="whiteSpace=wrap;html=1;aspect=fixed;fontSize=14;" parent="QlwDTHchW5DTva7efx4j-211" vertex="1">
          <mxGeometry width="160" height="160" as="geometry" />
        </mxCell>
        <mxCell id="QlwDTHchW5DTva7efx4j-213" value="" style="rounded=0;whiteSpace=wrap;html=1;comic=0;strokeColor=none;strokeWidth=6;fillColor=#000000;fontSize=14;" parent="QlwDTHchW5DTva7efx4j-211" vertex="1">
          <mxGeometry width="160" height="40" as="geometry" />
        </mxCell>
        <mxCell id="QlwDTHchW5DTva7efx4j-214" value="" style="group;fontSize=14;" parent="1" vertex="1" connectable="0">
          <mxGeometry x="320" width="160" height="160" as="geometry" />
        </mxCell>
        <mxCell id="QlwDTHchW5DTva7efx4j-215" value="Tavern" style="whiteSpace=wrap;html=1;aspect=fixed;fontSize=14;" parent="QlwDTHchW5DTva7efx4j-214" vertex="1">
          <mxGeometry width="160" height="160" as="geometry" />
        </mxCell>
        <mxCell id="QlwDTHchW5DTva7efx4j-216" value="" style="rounded=0;whiteSpace=wrap;html=1;comic=0;strokeColor=none;strokeWidth=6;fillColor=#000000;fontSize=14;" parent="QlwDTHchW5DTva7efx4j-214" vertex="1">
          <mxGeometry width="40" height="40" as="geometry" />
        </mxCell>
        <mxCell id="QlwDTHchW5DTva7efx4j-217" value="" style="group;fontSize=14;" parent="1" vertex="1" connectable="0">
          <mxGeometry x="480" width="160" height="160" as="geometry" />
        </mxCell>
        <mxCell id="QlwDTHchW5DTva7efx4j-218" value="Mechanic" style="whiteSpace=wrap;html=1;aspect=fixed;fontSize=14;fillColor=#f9f7ed;strokeColor=#36393d;" parent="QlwDTHchW5DTva7efx4j-217" vertex="1">
          <mxGeometry width="160" height="160" as="geometry" />
        </mxCell>
        <mxCell id="QlwDTHchW5DTva7efx4j-219" value="" style="rounded=0;whiteSpace=wrap;html=1;comic=0;strokeColor=none;strokeWidth=6;fillColor=#000000;fontSize=14;" parent="QlwDTHchW5DTva7efx4j-217" vertex="1">
          <mxGeometry width="160" height="40" as="geometry" />
        </mxCell>
        <mxCell id="QlwDTHchW5DTva7efx4j-220" value="Scholarly&lt;br style=&quot;font-size: 14px;&quot;&gt;Industrial&lt;br style=&quot;font-size: 14px;&quot;&gt;Military&lt;br style=&quot;font-size: 14px;&quot;&gt;Agricultural&lt;br style=&quot;font-size: 14px;&quot;&gt;Housing" style="text;html=1;strokeColor=none;fillColor=none;align=center;verticalAlign=middle;whiteSpace=wrap;rounded=0;comic=0;fontSize=14;" parent="1" vertex="1">
          <mxGeometry x="-520" y="-600" width="120" height="140" as="geometry" />
        </mxCell>
      </root>
    </mxGraphModel>
  </diagram>
</mxfile>
